<mxfile host="Electron" modified="2024-04-25T08:54:36.326Z" agent="Mozilla/5.0 (Windows NT 10.0; Win64; x64) AppleWebKit/537.36 (KHTML, like Gecko) draw.io/22.1.18 Chrome/120.0.6099.199 Electron/28.1.2 Safari/537.36" etag="RDWYPn22BWt6vwq6HRui" version="22.1.18" type="device">
  <diagram name="Page-1" id="ac9cILYFZASVgUSVuVbO">
    <mxGraphModel dx="2040" dy="992" grid="1" gridSize="10" guides="1" tooltips="1" connect="1" arrows="1" fold="1" page="1" pageScale="1" pageWidth="827" pageHeight="1169" math="0" shadow="0">
      <root>
        <mxCell id="0" />
        <mxCell id="1" parent="0" />
        <mxCell id="XCYUvg2Sore1t9NGe9SG-1" value="" style="swimlane;startSize=0;" vertex="1" parent="1">
          <mxGeometry x="80" width="680" height="1080" as="geometry" />
        </mxCell>
        <mxCell id="XCYUvg2Sore1t9NGe9SG-7" value="" style="rounded=0;whiteSpace=wrap;html=1;" vertex="1" parent="XCYUvg2Sore1t9NGe9SG-1">
          <mxGeometry y="80" width="680" height="30" as="geometry" />
        </mxCell>
        <mxCell id="XCYUvg2Sore1t9NGe9SG-8" value="&lt;font style=&quot;font-size: 36px;&quot;&gt;POENG&lt;/font&gt;" style="text;html=1;strokeColor=none;fillColor=none;align=center;verticalAlign=middle;whiteSpace=wrap;rounded=0;" vertex="1" parent="XCYUvg2Sore1t9NGe9SG-1">
          <mxGeometry x="60" y="110" width="170" height="80" as="geometry" />
        </mxCell>
        <mxCell id="XCYUvg2Sore1t9NGe9SG-12" value="&lt;font style=&quot;font-size: 36px;&quot;&gt;RUNDER&lt;/font&gt;" style="text;html=1;strokeColor=none;fillColor=none;align=center;verticalAlign=middle;whiteSpace=wrap;rounded=0;" vertex="1" parent="XCYUvg2Sore1t9NGe9SG-1">
          <mxGeometry x="490" y="135" width="60" height="30" as="geometry" />
        </mxCell>
        <mxCell id="XCYUvg2Sore1t9NGe9SG-20" value="" style="rounded=0;whiteSpace=wrap;html=1;" vertex="1" parent="XCYUvg2Sore1t9NGe9SG-1">
          <mxGeometry x="259" y="860" width="150" height="30" as="geometry" />
        </mxCell>
        <mxCell id="XCYUvg2Sore1t9NGe9SG-24" value="" style="rounded=0;whiteSpace=wrap;html=1;" vertex="1" parent="XCYUvg2Sore1t9NGe9SG-1">
          <mxGeometry x="30" y="190" width="90" height="30" as="geometry" />
        </mxCell>
        <mxCell id="XCYUvg2Sore1t9NGe9SG-31" value="" style="rounded=0;whiteSpace=wrap;html=1;" vertex="1" parent="XCYUvg2Sore1t9NGe9SG-1">
          <mxGeometry x="30" y="250" width="90" height="30" as="geometry" />
        </mxCell>
        <mxCell id="XCYUvg2Sore1t9NGe9SG-33" value="" style="rounded=0;whiteSpace=wrap;html=1;" vertex="1" parent="XCYUvg2Sore1t9NGe9SG-1">
          <mxGeometry x="200" y="250" width="90" height="30" as="geometry" />
        </mxCell>
        <mxCell id="XCYUvg2Sore1t9NGe9SG-35" value="" style="rounded=0;whiteSpace=wrap;html=1;" vertex="1" parent="XCYUvg2Sore1t9NGe9SG-1">
          <mxGeometry x="370" y="250" width="90" height="30" as="geometry" />
        </mxCell>
        <mxCell id="XCYUvg2Sore1t9NGe9SG-37" value="" style="rounded=0;whiteSpace=wrap;html=1;" vertex="1" parent="XCYUvg2Sore1t9NGe9SG-1">
          <mxGeometry x="540" y="250" width="90" height="30" as="geometry" />
        </mxCell>
        <mxCell id="XCYUvg2Sore1t9NGe9SG-44" style="edgeStyle=orthogonalEdgeStyle;rounded=0;orthogonalLoop=1;jettySize=auto;html=1;exitX=0.5;exitY=1;exitDx=0;exitDy=0;" edge="1" parent="XCYUvg2Sore1t9NGe9SG-1" source="XCYUvg2Sore1t9NGe9SG-8" target="XCYUvg2Sore1t9NGe9SG-8">
          <mxGeometry relative="1" as="geometry" />
        </mxCell>
        <mxCell id="XCYUvg2Sore1t9NGe9SG-47" value="" style="rounded=0;whiteSpace=wrap;html=1;" vertex="1" parent="XCYUvg2Sore1t9NGe9SG-1">
          <mxGeometry x="200" y="190" width="90" height="30" as="geometry" />
        </mxCell>
        <mxCell id="XCYUvg2Sore1t9NGe9SG-48" value="" style="rounded=0;whiteSpace=wrap;html=1;" vertex="1" parent="XCYUvg2Sore1t9NGe9SG-1">
          <mxGeometry x="370" y="190" width="90" height="30" as="geometry" />
        </mxCell>
        <mxCell id="XCYUvg2Sore1t9NGe9SG-50" value="" style="rounded=0;whiteSpace=wrap;html=1;" vertex="1" parent="XCYUvg2Sore1t9NGe9SG-1">
          <mxGeometry x="540" y="190" width="90" height="30" as="geometry" />
        </mxCell>
        <mxCell id="XCYUvg2Sore1t9NGe9SG-52" value="" style="rounded=0;whiteSpace=wrap;html=1;" vertex="1" parent="XCYUvg2Sore1t9NGe9SG-1">
          <mxGeometry x="30" y="310" width="90" height="30" as="geometry" />
        </mxCell>
        <mxCell id="XCYUvg2Sore1t9NGe9SG-54" value="" style="rounded=0;whiteSpace=wrap;html=1;" vertex="1" parent="XCYUvg2Sore1t9NGe9SG-1">
          <mxGeometry x="200" y="310" width="90" height="30" as="geometry" />
        </mxCell>
        <mxCell id="XCYUvg2Sore1t9NGe9SG-56" value="" style="rounded=0;whiteSpace=wrap;html=1;" vertex="1" parent="XCYUvg2Sore1t9NGe9SG-1">
          <mxGeometry x="370" y="310" width="90" height="30" as="geometry" />
        </mxCell>
        <mxCell id="XCYUvg2Sore1t9NGe9SG-58" value="" style="rounded=0;whiteSpace=wrap;html=1;" vertex="1" parent="XCYUvg2Sore1t9NGe9SG-1">
          <mxGeometry x="540" y="310" width="90" height="30" as="geometry" />
        </mxCell>
        <mxCell id="XCYUvg2Sore1t9NGe9SG-60" value="" style="ellipse;whiteSpace=wrap;html=1;aspect=fixed;" vertex="1" parent="XCYUvg2Sore1t9NGe9SG-1">
          <mxGeometry x="329" y="630" width="10" height="10" as="geometry" />
        </mxCell>
      </root>
    </mxGraphModel>
  </diagram>
</mxfile>
